<?xml version="1.0" encoding="UTF-8" standalone="no"?>
<!DOCTYPE svg PUBLIC "-//W3C//DTD SVG 1.1//EN" "http://www.w3.org/Graphics/SVG/1.1/DTD/svg11.dtd">
<svg xmlns="http://www.w3.org/2000/svg" xmlns:xlink="http://www.w3.org/1999/xlink" version="1.1" width="351.12pt" height="263.04pt" viewBox="0 0 351.12 263.04">
<g enable-background="new">
<clipPath id="cp0">
<path transform="matrix(.24,0,0,.24,0,0)" d="M 0 0 L 1462.5 0 L 1462.5 1094.6318 L 0 1094.6318 Z " fill-rule="evenodd"/>
</clipPath>
<g clip-path="url(#cp0)">
<path transform="matrix(.7177914,0,0,.7177914,0,0)" d="M 0 0 L 489 0 L 489 366 L 0 366 Z " fill="#ffffff"/>
</g>
<clipPath id="cp1">
<path transform="matrix(.24,0,0,.24,0,0)" d="M 0 0 L 1462.5 0 L 1462.5 1088.6503 L 0 1088.6503 Z " fill-rule="evenodd"/>
</clipPath>
<g clip-path="url(#cp1)">
<path transform="matrix(.7177914,0,0,.7177914,.3588957,.3588957)" d="M 3.5 1 L 216 1 L 216 213.5 L 3.5 213.5 Z " fill="#ffffff"/>
<path transform="matrix(.7177914,0,0,.7177914,.3588957,.3588957)" stroke-width="1" stroke-linecap="butt" stroke-miterlimit="4" stroke-linejoin="miter" fill="none" stroke="#66b2ff" d="M 3.5 1 L 216 1 L 216 213.5 L 3.5 213.5 Z "/>
</g>
<clipPath id="cp2">
<path transform="matrix(.24,0,0,.24,0,0)" d="M 21.56365 17.944787 L 642.42337 17.944787 L 642.42337 374.907 L 21.56365 374.907 Z " fill-rule="evenodd"/>
</clipPath>
<g clip-path="url(#cp2)">
<path transform="matrix(.14900275,0,0,.14898125,5.177063,4.3067486)" d="M 0 0 L 1000 0 L 1000 575.04507 L 0 575.04507 Z " fill="#ffffff"/>
<path transform="matrix(.14900275,0,0,.14898125,5.177063,4.3067486)" stroke-width="3" stroke-linecap="butt" stroke-miterlimit="4" stroke-linejoin="miter" fill="none" stroke="#000000" d="M 355.965 536.4717 L 460.956 446.8347 "/>
<path transform="matrix(.14900275,0,0,.14898125,5.177063,4.3067486)" stroke-width="3" stroke-linecap="butt" stroke-miterlimit="4" stroke-linejoin="miter" fill="none" stroke="#000000" d="M 460.956 446.83467 L 435.824 311.09169 "/>
<path transform="matrix(.14900275,0,0,.14898125,5.177063,4.3067486)" stroke-width="3" stroke-linecap="butt" stroke-miterlimit="4" stroke-linejoin="miter" fill="none" stroke="#000000" d="M 484.335 421.44667 L 466.74299 326.42668 "/>
<path transform="matrix(.14900275,0,0,.14898125,5.177063,4.3067486)" stroke-width="3" stroke-linecap="butt" stroke-miterlimit="4" stroke-linejoin="miter" fill="none" stroke="#000000" d="M 460.956 446.83467 L 591.07998 492.94166 "/>
<path transform="matrix(.14900275,0,0,.14898125,5.177063,4.3067486)" stroke-width="3" stroke-linecap="butt" stroke-miterlimit="4" stroke-linejoin="miter" fill="none" stroke="#000000" d="M 435.824 311.09165 L 540.815 221.45465 "/>
<path transform="matrix(.14900275,0,0,.14898125,5.177063,4.3067486)" stroke-width="3" stroke-linecap="butt" stroke-miterlimit="4" stroke-linejoin="miter" fill="none" stroke="#000000" d="M 435.824 311.09165 L 305.701 264.98466 "/>
<path transform="matrix(.14900275,0,0,.14898125,5.177063,4.3067486)" stroke-width="3" stroke-linecap="butt" stroke-miterlimit="4" stroke-linejoin="miter" fill="none" stroke="#000000" d="M 540.815 221.45465 L 670.93899 267.56166 "/>
<path transform="matrix(.14900275,0,0,.14898125,5.177063,4.3067486)" stroke-width="3" stroke-linecap="butt" stroke-miterlimit="4" stroke-linejoin="miter" fill="none" stroke="#000000" d="M 551.113 254.39565 L 642.199 286.66966 "/>
<path transform="matrix(.14900275,0,0,.14898125,5.177063,4.3067486)" stroke-width="3" stroke-linecap="butt" stroke-miterlimit="4" stroke-linejoin="miter" fill="none" stroke="#000000" d="M 670.939 267.56166 L 696.07107 403.30464 "/>
<path transform="matrix(.14900275,0,0,.14898125,5.177063,4.3067486)" stroke-width="3" stroke-linecap="butt" stroke-miterlimit="4" stroke-linejoin="miter" fill="none" stroke="#000000" d="M 670.939 267.56166 L 775.93008 177.92465 "/>
<path transform="matrix(.14900275,0,0,.14898125,5.177063,4.3067486)" stroke-width="3" stroke-linecap="butt" stroke-miterlimit="4" stroke-linejoin="miter" fill="none" stroke="#000000" d="M 696.071 403.30467 L 591.07998 492.94166 "/>
<path transform="matrix(.14900275,0,0,.14898125,5.177063,4.3067486)" stroke-width="3" stroke-linecap="butt" stroke-miterlimit="4" stroke-linejoin="miter" fill="none" stroke="#000000" d="M 662.395 395.75166 L 588.901 458.49766 "/>
<path transform="matrix(.14900275,0,0,.14898125,5.177063,4.3067486)" stroke-width="3" stroke-linecap="butt" stroke-miterlimit="4" stroke-linejoin="miter" fill="none" stroke="#000000" d="M 775.93 177.92465 L 831.652 197.66866 "/>
<path transform="matrix(.14900275,0,0,.14898125,5.177063,4.3067486)" stroke-width="3" stroke-linecap="butt" stroke-miterlimit="4" stroke-linejoin="miter" fill="none" stroke="#ff0000" d="M 831.652 197.66866 L 887.37399 217.41266 "/>
<path transform="matrix(.14900275,0,0,.14898125,5.177063,4.3067486)" stroke-width="3" stroke-linecap="butt" stroke-miterlimit="4" stroke-linejoin="miter" fill="none" stroke="#000000" d="M 789.504 175.41165 L 778.79006 117.53965 "/>
<path transform="matrix(.14900275,0,0,.14898125,5.177063,4.3067486)" stroke-width="3" stroke-linecap="butt" stroke-miterlimit="4" stroke-linejoin="miter" fill="none" stroke="#ff0000" d="M 778.79 117.53965 L 768.075 59.66765 "/>
<path transform="matrix(.14900275,0,0,.14898125,5.177063,4.3067486)" stroke-width="3" stroke-linecap="butt" stroke-miterlimit="4" stroke-linejoin="miter" fill="none" stroke="#000000" d="M 762.355 180.43766 L 751.641 122.56565 "/>
<path transform="matrix(.14900275,0,0,.14898125,5.177063,4.3067486)" stroke-width="3" stroke-linecap="butt" stroke-miterlimit="4" stroke-linejoin="miter" fill="none" stroke="#ff0000" d="M 751.641 122.56565 L 740.926 64.69465 "/>
<path transform="matrix(.14900275,0,0,.14898125,5.177063,4.3067486)" stroke-width="3" stroke-linecap="butt" stroke-miterlimit="4" stroke-linejoin="miter" fill="none" stroke="#000000" d="M 305.701 264.98466 L 280.569 129.24166 "/>
<path transform="matrix(.14900275,0,0,.14898125,5.177063,4.3067486)" stroke-width="3" stroke-linecap="butt" stroke-miterlimit="4" stroke-linejoin="miter" fill="none" stroke="#000000" d="M 274.783 249.64965 L 257.19 154.62863 "/>
<path transform="matrix(.14900275,0,0,.14898125,5.177063,4.3067486)" stroke-width="3" stroke-linecap="butt" stroke-miterlimit="4" stroke-linejoin="miter" fill="none" stroke="#000000" d="M 305.701 264.98466 L 200.70999 354.62165 "/>
<path transform="matrix(.14900275,0,0,.14898125,5.177063,4.3067486)" stroke-width="3" stroke-linecap="butt" stroke-miterlimit="4" stroke-linejoin="miter" fill="none" stroke="#000000" d="M 280.569 129.24166 L 150.446 83.13465 "/>
<path transform="matrix(.14900275,0,0,.14898125,5.177063,4.3067486)" stroke-width="3" stroke-linecap="butt" stroke-miterlimit="4" stroke-linejoin="miter" fill="none" stroke="#000000" d="M 150.446 83.13465 L 45.4545 172.77165 "/>
<path transform="matrix(.14900275,0,0,.14898125,5.177063,4.3067486)" stroke-width="3" stroke-linecap="butt" stroke-miterlimit="4" stroke-linejoin="miter" fill="none" stroke="#000000" d="M 152.624 117.57865 L 79.13059 180.32366 "/>
<path transform="matrix(.14900275,0,0,.14898125,5.177063,4.3067486)" stroke-width="3" stroke-linecap="butt" stroke-miterlimit="4" stroke-linejoin="miter" fill="none" stroke="#000000" d="M 45.4545 172.77165 L 70.58659 308.51466 "/>
<path transform="matrix(.14900275,0,0,.14898125,5.177063,4.3067486)" stroke-width="3" stroke-linecap="butt" stroke-miterlimit="4" stroke-linejoin="miter" fill="none" stroke="#000000" d="M 70.5866 308.51466 L 200.70999 354.62165 "/>
<path transform="matrix(.14900275,0,0,.14898125,5.177063,4.3067486)" stroke-width="3" stroke-linecap="butt" stroke-miterlimit="4" stroke-linejoin="miter" fill="none" stroke="#000000" d="M 99.3264 289.40565 L 190.413 321.68064 "/>
<text fill="#ff0000" xml:space="preserve" transform="matrix(.14900632 0 0 .14898482 5.177063 4.3067486)" font-size="39.99" font-family="ArialMT"><tspan y="244.02616" x="891.35269 922.4581">OH</tspan></text>
<text fill="#ff0000" xml:space="preserve" transform="matrix(.14900632 0 0 .14898482 5.177063 4.3067486)" font-size="39.99" font-family="ArialMT"><tspan y="62.1805" x="736.10037">O</tspan></text>
</g>
<clipPath id="cp3">
<path transform="matrix(.24,0,0,.24,0,0)" d="M 0 0 L 1462.5 0 L 1462.5 1088.6503 L 0 1088.6503 Z " fill-rule="evenodd"/>
</clipPath>
<g clip-path="url(#cp3)">
<path transform="matrix(.7177914,0,0,.7177914,.3588957,.3588957)" d="M 266 236 L 346 236 L 346 276 L 266 276 Z " fill="#ffcce6"/>
<path transform="matrix(.7177914,0,0,.7177914,.3588957,.3588957)" stroke-width="1" stroke-linecap="butt" stroke-miterlimit="4" stroke-linejoin="miter" fill="none" stroke="#000000" d="M 266 236 L 346 236 L 346 276 L 266 276 Z "/>
<text xml:space="preserve" transform="matrix(.7177914 0 0 .7177914 0 0)" font-size="8" font-family="ArialMT"><tspan y="254" x="282.4375 287.7735 292.2215 296.6695 300.6695 302.8935 305.5575 310.0055 314.0055 316.2295 320.6775 323.3415 327.7895">Substructural</tspan></text>
<text xml:space="preserve" transform="matrix(.7177914 0 0 .7177914 0 0)" font-size="8" font-family="ArialMT"><tspan y="268" x="283.76564 287.76564 292.21363 296.21363 300.66163 305.10963 306.88563 310.88563 315.33363 317.55763 319.33363 323.78163">Tokenization</tspan></text>
<path transform="matrix(.7177914,0,0,.7177914,.3588957,.3588957)" d="M 386 331 L 436 331 L 436 361 L 386 361 Z " fill="#e1d5e7"/>
<path transform="matrix(.7177914,0,0,.7177914,.3588957,.3588957)" d="M 66 331 L 146 331 L 146 361 L 66 361 Z " fill="#fff4c3"/>
<text xml:space="preserve" transform="matrix(.7177914 0 0 .7177914 0 0)" font-size="8" font-family="ArialMT"><tspan y="350" x="74.203128 79.53912 82.203128 86.65112 91.09912 92.87512 96.87512 99.09912 100.87512 105.32312 109.77112 111.99512 118.65912 123.10712 127.555118 132.00312 133.77912">Prediction Models</tspan></text>
<g id="Layer-1" data-name="Span">
</g>
<text xml:space="preserve" transform="matrix(.7177914 0 0 .7177914 0 0)" font-size="8" font-family="ArialMT"><tspan y="350" x="137.78125"> </tspan></text>
<path transform="matrix(.7177914,0,0,.7177914,.3588957,.3588957)" stroke-width="1" stroke-linecap="butt" stroke-miterlimit="10" stroke-linejoin="miter" fill="none" stroke="#000000" d="M 406 291 L 406 276 "/>
<path transform="matrix(.7177914,0,0,.7177914,.3588957,.3588957)" stroke-width="1" stroke-linecap="butt" stroke-miterlimit="10" stroke-linejoin="miter" fill="none" stroke="#000000" d="M 406 311 L 406 331 "/>
<path transform="matrix(.7177914,0,0,.7177914,.3588957,.3588957)" d="M 376 291 L 436 291 L 436 311 L 376 311 Z " fill="#e1d5e7"/>
<path transform="matrix(.7177914,0,0,.7177914,.3588957,.3588957)" stroke-width="1" stroke-linecap="butt" stroke-miterlimit="4" stroke-linejoin="miter" fill="none" stroke="#000000" d="M 376 291 L 436 291 L 436 311 L 376 311 Z "/>
<g id="Layer-1" data-name="Span">
</g>
<text xml:space="preserve" transform="matrix(.7177914 0 0 .7177914 0 0)" font-size="8" font-family="ArialMT"><tspan y="305" x="390.57814 395.16798 397.83198 402.27998 404.05598 408.50398 410.27998 414.72798 419.17597">Training </tspan></text>
<path transform="matrix(.7177914,0,0,.7177914,.3588957,.3588957)" d="M 276 331 L 346 331 L 346 361 L 276 361 Z " fill="#cdeb8b"/>
<path transform="matrix(.7177914,0,0,.7177914,.3588957,.3588957)" d="M 56 236 L 156 236 L 156 276 L 56 276 Z " fill="#b1ddf0"/>
<path transform="matrix(.7177914,0,0,.7177914,.3588957,.3588957)" d="M 156 236 L 176 256 L 156 276 L 156 236 Z " fill="#b1ddf0"/>
<path transform="matrix(.7177914,0,0,.7177914,.3588957,.3588957)" stroke-width="1" stroke-linecap="butt" stroke-miterlimit="10" stroke-linejoin="miter" fill="none" stroke="#000000" d="M 176 256 L 156 276 L 136 276 L 56 276 L 56 266 L 56 236 L 136 236 L 156 236 L 176 256 "/>
<path transform="matrix(.7177914,0,0,.7177914,.3588957,.3588957)" stroke-width="1" stroke-linecap="butt" stroke-miterlimit="10" stroke-linejoin="miter" fill="none" stroke="#000000" d="M 176 256 L 266 256 "/>
<text xml:space="preserve" transform="matrix(.7177914 0 0 .7177914 0 0)" font-size="8" font-family="ArialMT"><tspan y="256" x="58 63.776 69.112 74.448 79.784 85.41797 89.86328 92.52728 97.11719 99.78119 104.22919 106.00519 110.453189 112.22919 116.677188 121.12518 123.34918 129.12519 133.57318 140.23719 144.68518 149.13318 153.58118 158.02918 162.47718">NPBERT-Training Compounds</tspan></text>
<g id="Layer-1" data-name="Span">
</g>
<text xml:space="preserve" transform="matrix(.7177914 0 0 .7177914 0 0)" font-size="8" font-family="ArialMT"><tspan y="256" x="166.48438"> </tspan></text>
<g id="Layer-1" data-name="Span">
</g>
<text xml:space="preserve" transform="matrix(.7177914 0 0 .7177914 0 0)" font-size="8" font-family="ArialMT"><tspan y="266" x="91.46875 94.13275 98.80475 103.25275 105.476749 112.14075 113.91675 115.69275 117.46875 119.24475 123.69275 128.14075 130.80475">(~2 million) </tspan></text>
<path transform="matrix(.7177914,0,0,.7177914,.3588957,.3588957)" d="M 155.32572 235.53136 L 158.13756 234.48563 L 158.48613 235.42292 L 155.67429 236.46865 M 160.9494 233.43991 L 163.76125 232.39418 L 164.10982 233.33147 L 161.29798 234.3772 M 166.57309 231.34845 L 169.38492 230.30272 L 169.73349 231.24 L 166.92166 232.28574 M 172.19676 229.257 L 175.0086 228.21128 L 175.35718 229.14856 L 172.54534 230.19429 M 177.82045 227.16555 L 180.6323 226.11981 L 180.98087 227.0571 L 178.16902 228.10283 M 183.44414 225.0741 L 186.25598 224.02837 L 186.60456 224.96566 L 183.79271 226.01139 M 189.06783 222.98264 L 191.87967 221.93692 L 192.22824 222.8742 L 189.4164 223.91992 M 194.6915 220.89119 L 197.50334 219.84546 L 197.85192 220.78275 L 195.04007 221.82848 M 200.31519 218.79973 L 203.12703 217.75402 L 203.4756 218.6913 L 200.66376 219.73702 M 205.93888 216.70829 L 208.75072 215.66255 L 209.09929 216.59984 L 206.28745 217.64557 M 211.56256 214.61684 L 214.37439 213.5711 L 214.72296 214.50839 L 211.91114 215.55413 "/>
<path transform="matrix(.7177914,0,0,.7177914,.3588957,.3588957)" d="M 55.812707 236.4636 L 53.031129 235.33983 L 53.405717 234.41265 L 56.187295 235.5364 M 50.249555 234.21608 L 47.467977 233.09232 L 47.842565 232.16513 L 50.62414 233.2889 M 44.686399 231.96857 L 41.904825 230.8448 L 42.27941 229.91762 L 45.060987 231.04138 M 39.123247 229.72106 L 36.341669 228.59729 L 36.716257 227.6701 L 39.497835 228.79387 M 33.56009 227.47354 L 30.778517 226.34978 L 31.153101 225.42259 L 33.934679 226.54636 M 27.99694 225.22603 L 25.215363 224.10227 L 25.589947 223.17508 L 28.371525 224.29885 M 22.433787 222.97852 L 19.652209 221.85475 L 20.026793 220.92757 L 22.80837 222.05133 M 16.870635 220.73099 L 14.089055 219.60724 L 14.463641 218.68006 L 17.245219 219.8038 M 11.307477 218.48348 L 8.525903 217.35973 L 8.900489 216.43254 L 11.682063 217.55629 M 5.7443249 216.23596 L 2.9627469 215.11222 L 3.3373326 214.18503 L 6.118911 215.30878 "/>
<path transform="matrix(.7177914,0,0,.7177914,.3588957,.3588957)" d="M 265.5 236 L 265.5 233 L 266.5 233 L 266.5 236 M 265.5 230 L 265.5 227 L 266.5 227 L 266.5 230 M 265.5 224 L 265.5 221 L 266.5 221 L 266.5 224 M 265.5 218 L 265.5 215 L 266.5 215 L 266.5 218 M 265.5 212 L 265.5 211 L 266.5 211 L 266.5 212 "/>
<path transform="matrix(.7177914,0,0,.7177914,.3588957,.3588957)" d="M 345.5 236 L 345.5 233 L 346.5 233 L 346.5 236 M 345.5 230 L 345.5 227 L 346.5 227 L 346.5 230 M 345.5 224 L 345.5 221 L 346.5 221 L 346.5 224 M 345.5 218 L 345.5 215 L 346.5 215 L 346.5 218 M 345.5 212 L 345.5 211 L 346.5 211 L 346.5 212 "/>
<path transform="matrix(.7177914,0,0,.7177914,.3588957,.3588957)" d="M 375.5 236 L 375.5 233 L 376.5 233 L 376.5 236 M 375.5 230 L 375.5 227 L 376.5 227 L 376.5 230 M 375.5 224 L 375.5 221 L 376.5 221 L 376.5 224 M 375.5 218 L 375.5 215 L 376.5 215 L 376.5 218 M 375.5 212 L 375.5 211 L 376.5 211 L 376.5 212 "/>
<path transform="matrix(.7177914,0,0,.7177914,.3588957,.3588957)" d="M 435.5 236 L 435.5 233 L 436.5 233 L 436.5 236 M 435.5 230 L 435.5 227 L 436.5 227 L 436.5 230 M 435.5 224 L 435.5 221 L 436.5 221 L 436.5 224 M 435.5 218 L 435.5 215 L 436.5 215 L 436.5 218 M 435.5 212 L 435.5 211 L 436.5 211 L 436.5 212 "/>
<path transform="matrix(.00000000000000004395205,.7177914,-.7177914,.00000000000000004395205,486.30366,-96.542949)" d="M 401 241 L 411 271 L 401 301 L 401 241 Z " fill="#9ac7bf"/>
<path transform="matrix(.7177914,0,0,.7177914,.3588957,.3588957)" d="M 376 236 L 436 236 L 436 266 L 376 266 Z " fill="#9ac7bf"/>
<path transform="matrix(.7177914,0,0,.7177914,.3588957,.3588957)" stroke-width="1" stroke-linecap="butt" stroke-miterlimit="10" stroke-linejoin="miter" fill="none" stroke="#000000" d="M 406 276 L 376 266 L 376 236 L 436 236 L 436 266 L 406 276 "/>
<text xml:space="preserve" transform="matrix(.7177914 0 0 .7177914 0 0)" font-size="8" font-family="ArialMT"><tspan y="249" x="382.4375 387.7735 392.2215 396.6695 400.6695 402.8935 405.5575 410.0055 414.0055 416.2295 420.6775 423.3415 427.7895">Substructural</tspan></text>
<text xml:space="preserve" transform="matrix(.7177914 0 0 .7177914 0 0)" font-size="8" font-family="ArialMT"><tspan y="263" x="387.09376 392.42976 396.87776 401.32575 403.54975 407.99775 412.44575 416.44575 420.89375">Sentences</tspan></text>
<path transform="matrix(-.7177914,.0000000000000000879041,-.0000000000000000879041,-.7177914,547.3159,497.07054)" d="M 376 331 L 386 346 L 376 361 L 376 331 Z " fill="#e1d5e7"/>
<path transform="matrix(.7177914,0,0,.7177914,.3588957,.3588957)" stroke-width="1" stroke-linecap="butt" stroke-miterlimit="10" stroke-linejoin="miter" fill="none" stroke="#000000" d="M 376 346 L 386 331 L 436 331 L 436 361 L 386 361 L 376 346 "/>
<text xml:space="preserve" transform="matrix(.7177914 0 0 .7177914 0 0)" font-size="8" font-family="ArialMT"><tspan y="344" x="394.84376 400.61976 405.95576 411.29176 416.62776 422.26173">NPBERT</tspan></text>
<text xml:space="preserve" transform="matrix(.7177914 0 0 .7177914 0 0)" font-size="8" font-family="ArialMT"><tspan y="358" x="396.09376 401.42976 405.87776 409.87776 414.32575 418.77375 423.22175">Encoder</tspan></text>
<path transform="matrix(-.7177914,.0000000000000000879041,-.0000000000000000879041,-.7177914,389.40184,497.07054)" d="M 266 331 L 276 346 L 266 361 L 266 331 Z " fill="#cdeb8b"/>
<path transform="matrix(.7177914,0,0,.7177914,.3588957,.3588957)" stroke-width="1" stroke-linecap="butt" stroke-miterlimit="10" stroke-linejoin="miter" fill="none" stroke="#000000" d="M 266 346 L 276 331 L 346 331 L 346 361 L 276 361 L 266 346 "/>
<path transform="matrix(.7177914,0,0,.7177914,.3588957,.3588957)" stroke-width="1" stroke-linecap="butt" stroke-miterlimit="10" stroke-linejoin="miter" fill="none" stroke="#000000" d="M 346 345.9 L 376 345.88 "/>
<path transform="matrix(.7177914,0,0,.7177914,.3588957,.3588957)" d="M 166 331 L 246 331 L 246 361 L 166 361 Z " fill="#fff4c3"/>
<path transform="matrix(.7177914,0,0,.7177914,.3588957,.3588957)" stroke-width="1" stroke-linecap="butt" stroke-miterlimit="4" stroke-linejoin="miter" fill="none" stroke="#000000" d="M 166 331 L 246 331 L 246 361 L 166 361 Z "/>
<text xml:space="preserve" transform="matrix(.7177914 0 0 .7177914 0 0)" font-size="8" font-family="ArialMT"><tspan y="344" x="176.79688 181.38672 184.05072 188.49872 190.27472 194.72272 196.49872 200.94672 205.39472 207.61872 213.39472 215.17072 217.39472 221.84272 224.06671 230.73072">Training with ML</tspan></text>
<g id="Layer-1" data-name="Span">
</g>
<text xml:space="preserve" transform="matrix(.7177914 0 0 .7177914 0 0)" font-size="8" font-family="ArialMT"><tspan y="358" x="186 191.336 193.112 197.56 202.008 204.672 206.448 208.672 213.12 219.784 223.784">Algorithms </tspan></text>
<text xml:space="preserve" transform="matrix(.7177914 0 0 .7177914 0 0)" font-size="8" font-family="ArialMT"><tspan y="344" x="278.375 284.151 289.487 294.823 300.159 305.79298 310.23829 312.90229 317.35029 321.79829 325.79829 330.24629 334.69429 339.14228">NPBERT-encoded</tspan></text>
<g id="Layer-1" data-name="Span">
</g>
<text xml:space="preserve" transform="matrix(.7177914 0 0 .7177914 0 0)" font-size="8" font-family="ArialMT"><tspan y="344" x="343.59376"> </tspan></text>
<text xml:space="preserve" transform="matrix(.7177914 0 0 .7177914 0 0)" font-size="8" font-family="ArialMT"><tspan y="358" x="295.20314 300.09114 304.53913 308.98713 311.21113 315.65913 318.32313 322.77113">Features</tspan></text>
<g id="Layer-1" data-name="Span">
</g>
<text xml:space="preserve" transform="matrix(.7177914 0 0 .7177914 0 0)" font-size="8" font-family="ArialMT"><tspan y="358" x="326.76564"> </tspan></text>
<path transform="matrix(-.7177914,.0000000000000000879041,-.0000000000000000879041,-.7177914,87.92945,497.07054)" d="M 56 331 L 66 346 L 56 361 L 56 331 Z " fill="#fff4c3"/>
<path transform="matrix(.7177914,0,0,.7177914,.3588957,.3588957)" stroke-width="1" stroke-linecap="butt" stroke-miterlimit="10" stroke-linejoin="miter" fill="none" stroke="#000000" d="M 56 346 L 66 331 L 146 331 L 146 361 L 66 361 L 56 346 "/>
<path transform="matrix(.7177914,0,0,.7177914,.3588957,.3588957)" stroke-width="1" stroke-linecap="butt" stroke-miterlimit="10" stroke-linejoin="miter" fill="none" stroke="#000000" d="M 146 345.88 L 166 345.88 "/>
<path transform="matrix(.7177914,0,0,.7177914,.3588957,.3588957)" stroke-width="1" stroke-linecap="butt" stroke-miterlimit="10" stroke-linejoin="miter" fill="none" stroke="#000000" d="M 246 345.88 L 266 345.88 "/>
<path transform="matrix(.7177914,0,0,.7177914,.3588957,.3588957)" stroke-width="1" stroke-linecap="butt" stroke-miterlimit="10" stroke-linejoin="miter" fill="none" stroke="#000000" d="M 346 255.88 L 376 256 "/>
<path transform="matrix(.7177914,0,0,.7177914,.3588957,.3588957)" d="M 456 211 L 486 211 L 486 266 L 456 266 Z " fill="#cdeb8b"/>
<path transform="matrix(.00000000000000004395205,.7177914,-.7177914,.00000000000000004395205,532.96017,-143.19939)" d="M 466 256 L 476 271 L 466 286 L 466 256 Z " fill="#cdeb8b"/>
<path transform="matrix(.7177914,0,0,.7177914,.3588957,.3588957)" stroke-width="1" stroke-linecap="butt" stroke-miterlimit="10" stroke-linejoin="miter" fill="none" stroke="#000000" d="M 471 276 L 486 266 L 486 211 L 456 211 L 456 266 L 471 276 "/>
<text xml:space="preserve" transform="matrix(.00000000000000004395205 .7177914 -.7177914 .00000000000000004395205 510.62608 -168.23235)" font-size="8" font-family="ArialMT"><tspan y="237" x="451.60939 456.94538 461.39338 463.61738 465.39338 472.05738 476.50538 478.28138 482.72938 485.39338 487.16938 491.61738">Antimalarial</tspan></text>
<text xml:space="preserve" transform="matrix(.00000000000000004395205 .7177914 -.7177914 .00000000000000004395205 510.62608 -168.23235)" font-size="8" font-family="ArialMT"><tspan y="251" x="450.9375 456.7135 461.1615 467.8255 472.2735 476.7215 481.1695 485.6175 490.0655">Compounds</tspan></text>
<path transform="matrix(.7177914,0,0,.7177914,.3588957,.3588957)" stroke-width="1" stroke-linecap="butt" stroke-miterlimit="10" stroke-linejoin="miter" fill="none" stroke="#000000" d="M 436 346 L 471 346 L 471 276 "/>
<path transform="matrix(.7177914,0,0,.7177914,.3588957,.3588957)" stroke-width="1" stroke-linecap="butt" stroke-miterlimit="4" stroke-linejoin="miter" fill="none" stroke="#cc6600" d="M 156 91 L 196 91 L 196 121 L 156 121 Z "/>
<path transform="matrix(.7177914,0,0,.7177914,.3588957,.3588957)" d="M 255.38 154 L 252.38 154 L 252.38 153 L 255.38 153 M 249.38 154 L 246.38 154 L 246.38 153 L 249.38 153 M 243.38 154 L 240.38 154 L 240.38 153 L 243.38 153 M 237.38 154 L 234.38 154 L 234.38 153 L 237.38 153 M 231.38 154 L 228.38 154 L 228.38 153 L 231.38 153 M 225.38 154 L 222.38 154 L 222.38 153 L 225.38 153 M 219.38 154 L 216.38 154 L 216.38 153 L 219.38 153 M 213.38 154 L 210.38 154 L 210.38 153 L 213.38 153 M 207.38 154 L 204.38 154 L 204.38 153 L 207.38 153 M 201.38 154 L 198.38 154 L 198.38 153 L 201.38 153 M 195.38 154 L 192.38 154 L 192.38 153 L 195.38 153 M 189.38 154 L 186.38 154 L 186.38 153 L 189.38 153 M 183.38 154 L 180.38 154 L 180.38 153 L 183.38 153 M 177.38 154 L 174.38 154 L 174.38 153 L 177.38 153 M 171.38 154 L 168.38 154 L 168.38 153 L 171.38 153 M 165.38 154 L 162.38 154 L 162.38 153 L 165.38 153 M 159.38 154 L 156.38 154 L 156.38 153 L 159.38 153 M 153.38 154 L 150.38 154 L 150.38 153 L 153.38 153 M 147.38 154 L 144.38 154 L 144.38 153 L 147.38 153 M 141.38 154 L 138.38 154 L 138.38 153 L 141.38 153 M 135.38 154 L 132.38 154 L 132.38 153 L 135.38 153 M 129.38 154 L 126.380008 154 L 126.380008 153 L 129.38 153 " fill="#3f6e9e"/>
<path transform="matrix(.7177914,0,0,.7177914,.3588957,.3588957)" d="M 266 31 L 346 31 L 346 211 L 266 211 Z " fill="#ffcce6"/>
<path transform="matrix(.7177914,0,0,.7177914,.3588957,.3588957)" stroke-width="1" stroke-linecap="butt" stroke-miterlimit="4" stroke-linejoin="miter" fill="none" stroke="#3f6e9e" d="M 56 91 L 106 91 L 106 131 L 56 131 Z "/>
<path transform="matrix(.7177914,0,0,.7177914,.3588957,.3588957)" stroke-width="1" stroke-linecap="butt" stroke-miterlimit="4" stroke-linejoin="miter" fill="none" stroke="#3f6e9e" d="M 36 153.5 L 126 153.5 L 126 201 L 36 201 Z "/>
<path transform="matrix(.7177914,0,0,.7177914,.3588957,.3588957)" stroke-width="1" stroke-linecap="butt" stroke-miterlimit="10" stroke-linejoin="miter" fill="none" stroke="#3f6e9e" d="M 56 131 L 36 153.5 "/>
<path transform="matrix(.7177914,0,0,.7177914,.3588957,.3588957)" stroke-width="1" stroke-linecap="butt" stroke-miterlimit="10" stroke-linejoin="miter" fill="none" stroke="#3f6e9e" d="M 106 131 L 126 153.5 "/>
<path transform="matrix(.7177914,0,0,.7177914,.3588957,.3588957)" stroke-width="1" stroke-linecap="butt" stroke-miterlimit="4" stroke-linejoin="miter" fill="none" stroke="#cc6600" d="M 71 106 L 91 106 L 91 126 L 71 126 Z "/>
<path transform="matrix(.7177914,0,0,.7177914,.3588957,.3588957)" stroke-width="1" stroke-linecap="butt" stroke-miterlimit="10" stroke-linejoin="miter" fill="none" stroke="#cc6600" d="M 91 126 L 156 121 "/>
<path transform="matrix(.7177914,0,0,.7177914,.3588957,.3588957)" d="M 185.38 108.5 C 185.37999 108.992458 185.33196 109.48017 185.23587 109.963169 C 185.13979 110.44616 184.99753 110.91514 184.80907 111.37011 C 184.6206 111.82508 184.38959 112.25729 184.11598 112.666759 C 183.84239 113.07622 183.5315 113.45506 183.18328 113.80329 C 182.83506 114.151508 182.4562 114.46241 182.04674 114.73601 C 181.63729 115.0096 181.20508 115.24062 180.7501 115.429088 C 180.29514 115.61754 179.82614 115.7598 179.34316 115.85588 C 178.86017 115.95196 178.37245 115.99999 177.88 116 C 177.38755 115.99999 176.89981 115.95196 176.41683 115.85588 C 175.93383 115.7598 175.46483 115.61753 175.00986 115.42908 C 174.55489 115.24062 174.12268 115.0096 173.71321 114.73601 C 173.30376 114.46241 172.92493 114.151508 172.5767 113.80329 C 172.22849 113.45506 171.91757 113.076229 171.64398 112.66676 C 171.37038 112.2573 171.13935 111.82508 170.9509 111.37011 C 170.76244 110.91514 170.62017 110.44616 170.5241 109.963169 C 170.42803 109.48017 170.37999 108.992458 170.38 108.5 C 170.37999 108.007549 170.42803 107.51981 170.5241 107.03681 C 170.62017 106.55382 170.76244 106.08483 170.9509 105.62986 C 171.13935 105.1749 171.37038 104.742679 171.64398 104.33321 C 171.91757 103.92376 172.22849 103.54492 172.5767 103.19669 C 172.92493 102.84847 173.30376 102.53757 173.7132 102.26397 C 174.12267 101.99037 174.55489 101.75935 175.00986 101.5709 C 175.46483 101.38245 175.93383 101.24019 176.41683 101.14411 C 176.89981 101.04804 177.38755 101.00001 177.88 101 C 178.37245 101.00001 178.86017 101.04804 179.34316 101.14411 C 179.82614 101.24019 180.29514 101.38245 180.7501 101.57089 C 181.20508 101.759349 181.63729 101.99037 182.04674 102.26397 C 182.4562 102.53757 182.83506 102.84847 183.18328 103.19669 C 183.5315 103.54492 183.84239 103.92376 184.11598 104.33321 C 184.38959 104.742679 184.6206 105.1749 184.80907 105.62986 C 184.99753 106.08483 185.13979 106.55382 185.23587 107.03681 C 185.33196 107.51981 185.37999 108.007549 185.38 108.5 Z " fill="#b3b3b3"/>
<path transform="matrix(.7177914,0,0,.7177914,.3588957,.3588957)" stroke-width="1" stroke-linecap="butt" stroke-miterlimit="4" stroke-linejoin="miter" fill="none" stroke="#000000" d="M 185.38 108.5 C 185.37999 108.992458 185.33196 109.48017 185.23587 109.963169 C 185.13979 110.44616 184.99753 110.91514 184.80907 111.37011 C 184.6206 111.82508 184.38959 112.25729 184.11598 112.666759 C 183.84239 113.07622 183.5315 113.45506 183.18328 113.80329 C 182.83506 114.151508 182.4562 114.46241 182.04674 114.73601 C 181.63729 115.0096 181.20508 115.24062 180.7501 115.429088 C 180.29514 115.61754 179.82614 115.7598 179.34316 115.85588 C 178.86017 115.95196 178.37245 115.99999 177.88 116 C 177.38755 115.99999 176.89981 115.95196 176.41683 115.85588 C 175.93383 115.7598 175.46483 115.61753 175.00986 115.42908 C 174.55489 115.24062 174.12268 115.0096 173.71321 114.73601 C 173.30376 114.46241 172.92493 114.151508 172.5767 113.80329 C 172.22849 113.45506 171.91757 113.076229 171.64398 112.66676 C 171.37038 112.2573 171.13935 111.82508 170.9509 111.37011 C 170.76244 110.91514 170.62017 110.44616 170.5241 109.963169 C 170.42803 109.48017 170.37999 108.992458 170.38 108.5 C 170.37999 108.007549 170.42803 107.51981 170.5241 107.03681 C 170.62017 106.55382 170.76244 106.08483 170.9509 105.62986 C 171.13935 105.1749 171.37038 104.742679 171.64398 104.33321 C 171.91757 103.92376 172.22849 103.54492 172.5767 103.19669 C 172.92493 102.84847 173.30376 102.53757 173.7132 102.26397 C 174.12267 101.99037 174.55489 101.75935 175.00986 101.5709 C 175.46483 101.38245 175.93383 101.24019 176.41683 101.14411 C 176.89981 101.04804 177.38755 101.00001 177.88 101 C 178.37245 101.00001 178.86017 101.04804 179.34316 101.14411 C 179.82614 101.24019 180.29514 101.38245 180.7501 101.57089 C 181.20508 101.759349 181.63729 101.99037 182.04674 102.26397 C 182.4562 102.53757 182.83506 102.84847 183.18328 103.19669 C 183.5315 103.54492 183.84239 103.92376 184.11598 104.33321 C 184.38959 104.742679 184.6206 105.1749 184.80907 105.62986 C 184.99753 106.08483 185.13979 106.55382 185.23587 107.03681 C 185.33196 107.51981 185.37999 108.007549 185.38 108.5 Z "/>
<text xml:space="preserve" transform="matrix(.7177914 0 0 .7177914 0 0)" font-size="12" font-family="ArialMT"><tspan y="114" x="173.15625">C</tspan></text>
<path transform="matrix(.7177914,0,0,.7177914,.3588957,.3588957)" stroke-width="1" stroke-linecap="butt" stroke-miterlimit="10" stroke-linejoin="miter" fill="none" stroke="#000000" d="M 165.38 96 L 172.58 103.2 "/>
<path transform="matrix(.7177914,0,0,.7177914,.3588957,.3588957)" d="M 99.125 187.25 C 99.12499 187.7835 99.07295 188.31186 98.96887 188.83512 C 98.864788 189.35836 98.71066 189.86641 98.50651 190.35929 C 98.302349 190.85218 98.05206 191.3204 97.75567 191.76399 C 97.459278 192.20758 97.12246 192.618 96.74523 192.99524 C 96.36799 193.37247 95.95757 193.70928 95.513988 194.00568 C 95.0704 194.30208 94.602169 194.55236 94.10928 194.75652 C 93.6164 194.96068 93.10834 195.11479 92.5851 195.21887 C 92.06186 195.32295 91.53349 195.37499 91 195.375 C 90.4665 195.37499 89.93813 195.32295 89.41489 195.21887 C 88.89164 195.11479 88.383579 194.96068 87.890689 194.75652 C 87.397808 194.55236 86.929569 194.30208 86.485988 194.00568 C 86.0424 193.70928 85.63199 193.37247 85.25475 192.99524 C 84.87752 192.618 84.540699 192.20757 84.2443 191.76398 C 83.94791 191.3204 83.697628 190.85218 83.49347 190.35929 C 83.289318 189.86641 83.13519 189.35836 83.03111 188.83512 C 82.92704 188.31186 82.875 187.7835 82.875 187.25 C 82.875 186.7165 82.92704 186.18813 83.03111 185.66489 C 83.13519 185.14163 83.289318 184.63356 83.49347 184.14069 C 83.697628 183.64778 83.94791 183.17955 84.2443 182.73598 C 84.540699 182.29239 84.87752 181.88199 85.25475 181.50475 C 85.63199 181.12752 86.0424 180.79071 86.485988 180.49431 C 86.929569 180.1979 87.397808 179.94763 87.890689 179.74347 C 88.383579 179.5393 88.89164 179.3852 89.41489 179.28112 C 89.93813 179.17704 90.4665 179.125 91 179.125 C 91.53349 179.125 92.06186 179.17704 92.5851 179.28112 C 93.10834 179.3852 93.6164 179.5393 94.10928 179.74347 C 94.602169 179.94763 95.0704 180.1979 95.51399 180.49431 C 95.95757 180.79071 96.36799 181.12752 96.74523 181.50475 C 97.12246 181.88199 97.459278 182.29239 97.75567 182.73596 C 98.05206 183.17955 98.302349 183.64778 98.50651 184.14067 C 98.71066 184.63355 98.864788 185.14162 98.96887 185.66489 C 99.07295 186.18813 99.12499 186.7165 99.125 187.25 Z " fill="#b3b3b3"/>
<path transform="matrix(.7177914,0,0,.7177914,.3588957,.3588957)" stroke-width="1" stroke-linecap="butt" stroke-miterlimit="4" stroke-linejoin="miter" fill="none" stroke="#000000" d="M 99.125 187.25 C 99.12499 187.7835 99.07295 188.31186 98.96887 188.83512 C 98.864788 189.35836 98.71066 189.86641 98.50651 190.35929 C 98.302349 190.85218 98.05206 191.3204 97.75567 191.76399 C 97.459278 192.20758 97.12246 192.618 96.74523 192.99524 C 96.36799 193.37247 95.95757 193.70928 95.513988 194.00568 C 95.0704 194.30208 94.602169 194.55236 94.10928 194.75652 C 93.6164 194.96068 93.10834 195.11479 92.5851 195.21887 C 92.06186 195.32295 91.53349 195.37499 91 195.375 C 90.4665 195.37499 89.93813 195.32295 89.41489 195.21887 C 88.89164 195.11479 88.383579 194.96068 87.890689 194.75652 C 87.397808 194.55236 86.929569 194.30208 86.485988 194.00568 C 86.0424 193.70928 85.63199 193.37247 85.25475 192.99524 C 84.87752 192.618 84.540699 192.20757 84.2443 191.76398 C 83.94791 191.3204 83.697628 190.85218 83.49347 190.35929 C 83.289318 189.86641 83.13519 189.35836 83.03111 188.83512 C 82.92704 188.31186 82.875 187.7835 82.875 187.25 C 82.875 186.7165 82.92704 186.18813 83.03111 185.66489 C 83.13519 185.14163 83.289318 184.63356 83.49347 184.14069 C 83.697628 183.64778 83.94791 183.17955 84.2443 182.73598 C 84.540699 182.29239 84.87752 181.88199 85.25475 181.50475 C 85.63199 181.12752 86.0424 180.79071 86.485988 180.49431 C 86.929569 180.1979 87.397808 179.94763 87.890689 179.74347 C 88.383579 179.5393 88.89164 179.3852 89.41489 179.28112 C 89.93813 179.17704 90.4665 179.125 91 179.125 C 91.53349 179.125 92.06186 179.17704 92.5851 179.28112 C 93.10834 179.3852 93.6164 179.5393 94.10928 179.74347 C 94.602169 179.94763 95.0704 180.1979 95.51399 180.49431 C 95.95757 180.79071 96.36799 181.12752 96.74523 181.50475 C 97.12246 181.88199 97.459278 182.29239 97.75567 182.73596 C 98.05206 183.17955 98.302349 183.64778 98.50651 184.14067 C 98.71066 184.63355 98.864788 185.14162 98.96887 185.66489 C 99.07295 186.18813 99.12499 186.7165 99.125 187.25 Z "/>
<text xml:space="preserve" transform="matrix(.7177914 0 0 .7177914 0 0)" font-size="12" font-family="ArialMT"><tspan y="192" x="86.65625">C</tspan></text>
<path transform="matrix(.7177914,0,0,.7177914,.3588957,.3588957)" stroke-width="1" stroke-linecap="butt" stroke-miterlimit="10" stroke-linejoin="miter" fill="none" stroke="#000000" d="M 76.75 172.99 L 85.26 181.5 "/>
<path transform="matrix(.7177914,0,0,.7177914,.3588957,.3588957)" d="M 79.125 167.25 C 79.12499 167.7835 79.07295 168.31186 78.96887 168.8351 C 78.86479 169.35834 78.71067 169.86641 78.50651 170.35929 C 78.30235 170.85216 78.05207 171.32039 77.75568 171.76398 C 77.45928 172.20757 77.122478 172.61798 76.74524 172.99523 C 76.368 173.37247 75.95758 173.70928 75.514 174.00566 C 75.07041 174.30207 74.60217 174.55234 74.10929 174.7565 C 73.6164 174.96067 73.10834 175.11478 72.5851 175.21886 C 72.06186 175.32294 71.53349 175.37499 71 175.375 C 70.4665 175.37499 69.93813 175.32294 69.41489 175.21884 C 68.89164 175.11478 68.383579 174.96067 67.890689 174.7565 C 67.397808 174.55234 66.929569 174.30207 66.485988 174.00566 C 66.042407 173.70928 65.63199 173.37247 65.25475 172.99523 C 64.87752 172.61798 64.540699 172.20757 64.2443 171.76399 C 63.947904 171.3204 63.697629 170.85216 63.49347 170.35929 C 63.28931 169.86641 63.13519 169.35834 63.031114 168.8351 C 62.927038 168.31186 62.874998 167.7835 62.875 167.25 C 62.874998 166.7165 62.927038 166.18813 63.031114 165.66487 C 63.13519 165.14163 63.28931 164.63358 63.49347 164.14069 C 63.697629 163.6478 63.947904 163.17957 64.2443 162.73598 C 64.540699 162.29239 64.87752 161.88198 65.25475 161.50475 C 65.63199 161.1275 66.042407 160.7907 66.485988 160.4943 C 66.929569 160.1979 67.397808 159.94763 67.890689 159.74347 C 68.383579 159.5393 68.89164 159.3852 69.41489 159.28113 C 69.93813 159.17705 70.4665 159.125 71 159.125 C 71.53349 159.125 72.06186 159.17705 72.5851 159.28113 C 73.10834 159.3852 73.6164 159.5393 74.10929 159.74347 C 74.60217 159.94763 75.07041 160.1979 75.514 160.4943 C 75.95758 160.7907 76.368 161.1275 76.74524 161.50475 C 77.122478 161.88198 77.45928 162.29239 77.75568 162.73598 C 78.05207 163.17957 78.30235 163.6478 78.50651 164.14069 C 78.71067 164.63358 78.86479 165.14163 78.96887 165.66487 C 79.07295 166.18813 79.12499 166.7165 79.125 167.25 Z " fill="#b3b3b3"/>
<path transform="matrix(.7177914,0,0,.7177914,.3588957,.3588957)" stroke-width="1" stroke-linecap="butt" stroke-miterlimit="4" stroke-linejoin="miter" fill="none" stroke="#000000" d="M 79.125 167.25 C 79.12499 167.7835 79.07295 168.31186 78.96887 168.8351 C 78.86479 169.35834 78.71067 169.86641 78.50651 170.35929 C 78.30235 170.85216 78.05207 171.32039 77.75568 171.76398 C 77.45928 172.20757 77.122478 172.61798 76.74524 172.99523 C 76.368 173.37247 75.95758 173.70928 75.514 174.00566 C 75.07041 174.30207 74.60217 174.55234 74.10929 174.7565 C 73.6164 174.96067 73.10834 175.11478 72.5851 175.21886 C 72.06186 175.32294 71.53349 175.37499 71 175.375 C 70.4665 175.37499 69.93813 175.32294 69.41489 175.21884 C 68.89164 175.11478 68.383579 174.96067 67.890689 174.7565 C 67.397808 174.55234 66.929569 174.30207 66.485988 174.00566 C 66.042407 173.70928 65.63199 173.37247 65.25475 172.99523 C 64.87752 172.61798 64.540699 172.20757 64.2443 171.76399 C 63.947904 171.3204 63.697629 170.85216 63.49347 170.35929 C 63.28931 169.86641 63.13519 169.35834 63.031114 168.8351 C 62.927038 168.31186 62.874998 167.7835 62.875 167.25 C 62.874998 166.7165 62.927038 166.18813 63.031114 165.66487 C 63.13519 165.14163 63.28931 164.63358 63.49347 164.14069 C 63.697629 163.6478 63.947904 163.17957 64.2443 162.73598 C 64.540699 162.29239 64.87752 161.88198 65.25475 161.50475 C 65.63199 161.1275 66.042407 160.7907 66.485988 160.4943 C 66.929569 160.1979 67.397808 159.94763 67.890689 159.74347 C 68.383579 159.5393 68.89164 159.3852 69.41489 159.28113 C 69.93813 159.17705 70.4665 159.125 71 159.125 C 71.53349 159.125 72.06186 159.17705 72.5851 159.28113 C 73.10834 159.3852 73.6164 159.5393 74.10929 159.74347 C 74.60217 159.94763 75.07041 160.1979 75.514 160.4943 C 75.95758 160.7907 76.368 161.1275 76.74524 161.50475 C 77.122478 161.88198 77.45928 162.29239 77.75568 162.73598 C 78.05207 163.17957 78.30235 163.6478 78.50651 164.14069 C 78.71067 164.63358 78.86479 165.14163 78.96887 165.66487 C 79.07295 166.18813 79.12499 166.7165 79.125 167.25 Z "/>
<text xml:space="preserve" transform="matrix(.7177914 0 0 .7177914 0 0)" font-size="12" font-family="ArialMT"><tspan y="172" x="66.65625">C</tspan></text>
<text xml:space="preserve" transform="matrix(.7177914 0 0 .7177914 0 0)" font-size="8" font-family="ArialMT"><tspan y="211" x="46.75 52.086 54.309999 58.758 65.422 67.645999 72.093997 76.54199 78.76599 81.42999 83.65399 89.42999 93.87799 98.32599 100.10199 104.54999 108.54999 110.77399">Atom 13 - Radius 1</tspan></text>
<text xml:space="preserve" transform="matrix(.7177914 0 0 .7177914 0 0)" font-size="8" font-family="ArialMT"><tspan y="89" x="157.75 159.974 165.75 167.974 170.198 174.646 179.094 183.54199 187.98999 192.43799 196.88599 201.33399 205.78199">ID: 341234565</tspan></text>
<g id="Layer-1" data-name="Span">
</g>
<text xml:space="preserve" transform="matrix(.7177914 0 0 .7177914 0 0)" font-size="8" font-family="ArialMT"><tspan y="151" x="53.765626 55.989625 61.765626 63.989625">ID: </tspan></text>
<text xml:space="preserve" transform="matrix(.7177914 0 0 .7177914 0 0)" font-size="8" font-family="ArialMT"><tspan y="151" x="66.203128 70.65112 75.09912 79.54712 83.99512 88.443119 92.89111 97.33911 101.78711">341233565</tspan></text>
<path transform="matrix(.7177914,0,0,.7177914,.3588957,.3588957)" stroke-width="1" stroke-linecap="butt" stroke-miterlimit="10" stroke-linejoin="miter" fill="none" stroke="#000000" d="M 346 121 L 371.88 121 "/>
<path transform="matrix(.7177914,0,0,.7177914,.3588957,.3588957)" d="M 374.88 121 L 370.88 123 L 371.88 121 L 370.88 119 L 374.88 121 Z "/>
<path transform="matrix(.7177914,0,0,.7177914,.3588957,.3588957)" stroke-width="1" stroke-linecap="butt" stroke-miterlimit="10" stroke-linejoin="miter" fill="none" stroke="#000000" d="M 374.88 121 L 370.88 123 L 371.88 121 L 370.88 119 L 374.88 121 Z "/>
<text xml:space="preserve" transform="matrix(.7177914 0 0 .7177914 0 0)" font-size="8" font-family="ArialMT"><tspan y="49" x="273.98439 279.32038 281.54438 285.99238 292.65638 294.88038 299.32838 301.55238 304.21638 306.44038 312.21638 316.66438 321.11238 322.88838 327.33638 331.33638 333.56037">Atom 0 - Radius 0</tspan></text>
<text xml:space="preserve" transform="matrix(.7177914 0 0 .7177914 0 0)" font-size="8" font-family="ArialMT"><tspan y="63" x="273.98439 279.32038 281.54438 285.99238 292.65638 294.88038 299.32838 301.55238 304.21638 306.44038 312.21638 316.66438 321.11238 322.88838 327.33638 331.33638 333.56037">Atom 0 - Radius 1</tspan></text>
<text xml:space="preserve" transform="matrix(.7177914 0 0 .7177914 0 0)" font-size="8" font-family="ArialMT"><tspan y="77" x="273.98439 279.32038 281.54438 285.99238 292.65638 294.88038 299.32838 301.55238 304.21638 306.44038 312.21638 316.66438 321.11238 322.88838 327.33638 331.33638 333.56037">Atom 1 - Radius 0</tspan></text>
<text xml:space="preserve" transform="matrix(.7177914 0 0 .7177914 0 0)" font-size="8" font-family="ArialMT"><tspan y="91" x="273.98439 279.32038 281.54438 285.99238 292.65638 294.88038 299.32838 301.55238 304.21638 306.44038 312.21638 316.66438 321.11238 322.88838 327.33638 331.33638 333.56037">Atom 1 - Radius 1</tspan></text>
<text xml:space="preserve" transform="matrix(.7177914 0 0 .7177914 0 0)" font-size="8" font-family="ArialMT"><tspan y="105" x="273.98439 279.32038 281.54438 285.99238 292.65638 294.88038 299.32838 301.55238 304.21638 306.44038 312.21638 316.66438 321.11238 322.88838 327.33638 331.33638 333.56037">Atom 2 - Radius 0</tspan></text>
<text xml:space="preserve" transform="matrix(.7177914 0 0 .7177914 0 0)" font-size="8" font-family="ArialMT"><tspan y="119" x="273.98439 279.32038 281.54438 285.99238 292.65638 294.88038 299.32838 301.55238 304.21638 306.44038 312.21638 316.66438 321.11238 322.88838 327.33638 331.33638 333.56037">Atom 2 - Radius 1</tspan></text>
<text xml:space="preserve" transform="matrix(.7177914 0 0 .7177914 0 0)" font-size="8" font-family="ArialMT"><tspan y="133" x="273.76564 275.98963 278.21363 280.43763 282.66163 284.88563 287.10963 289.33363 291.55763 293.78163 296.0056 298.2296 300.4536 302.6776 304.9016 307.1256 309.3496 311.5736 313.7976 316.0216 318.2456 320.4696 322.6936 324.9176 327.1416 329.3656 331.5896 333.8136 336.0376">.............................</tspan></text>
<g id="Layer-1" data-name="Span">
</g>
<text xml:space="preserve" transform="matrix(.7177914 0 0 .7177914 0 0)" font-size="8" font-family="ArialMT"><tspan y="133" x="338.21876"> </tspan></text>
<text xml:space="preserve" transform="matrix(.7177914 0 0 .7177914 0 0)" font-size="8" font-family="ArialMT"><tspan y="147" x="271.75 277.086 279.31 283.758 290.422 292.646 297.094 301.542 303.766 306.43 308.654 314.43 318.878 323.326 325.102 329.55 333.55 335.774">Atom 13 - Radius 0</tspan></text>
<g id="Layer-1" data-name="Span">
</g>
<text xml:space="preserve" transform="matrix(.7177914 0 0 .7177914 0 0)" font-size="8" font-family="ArialMT"><tspan y="147" x="340.21876"> </tspan></text>
<text xml:space="preserve" transform="matrix(.7177914 0 0 .7177914 0 0)" font-size="8" font-family="ArialMT"><tspan y="161" x="271.75 277.086 279.31 283.758 290.422 292.646 297.094 301.542 303.766 306.43 308.654 314.43 318.878 323.326 325.102 329.55 333.55 335.774">Atom 13 - Radius 1</tspan></text>
<g id="Layer-1" data-name="Span">
</g>
<text xml:space="preserve" transform="matrix(.7177914 0 0 .7177914 0 0)" font-size="8" font-family="ArialMT"><tspan y="161" x="340.21876"> </tspan></text>
<text xml:space="preserve" transform="matrix(.7177914 0 0 .7177914 0 0)" font-size="8" font-family="ArialMT"><tspan y="175" x="273.76564 275.98963 278.21363 280.43763 282.66163 284.88563 287.10963 289.33363 291.55763 293.78163 296.0056 298.2296 300.4536 302.6776 304.9016 307.1256 309.3496 311.5736 313.7976 316.0216 318.2456 320.4696 322.6936 324.9176 327.1416 329.3656 331.5896 333.8136 336.0376">.............................</tspan></text>
<g id="Layer-1" data-name="Span">
</g>
<text xml:space="preserve" transform="matrix(.7177914 0 0 .7177914 0 0)" font-size="8" font-family="ArialMT"><tspan y="175" x="338.21876"> </tspan></text>
<text xml:space="preserve" transform="matrix(.7177914 0 0 .7177914 0 0)" font-size="8" font-family="ArialMT"><tspan y="189" x="271.75 277.086 279.31 283.758 290.422 292.646 297.094 301.542 303.766 306.43 308.654 314.43 318.878 323.326 325.102 329.55 333.55 335.774">Atom 16 - Radius 0</tspan></text>
<g id="Layer-1" data-name="Span">
</g>
<text xml:space="preserve" transform="matrix(.7177914 0 0 .7177914 0 0)" font-size="8" font-family="ArialMT"><tspan y="189" x="340.21876"> </tspan></text>
<text xml:space="preserve" transform="matrix(.7177914 0 0 .7177914 0 0)" font-size="8" font-family="ArialMT"><tspan y="203" x="271.75 277.086 279.31 283.758 290.422 292.646 297.094 301.542 303.766 306.43 308.654 314.43 318.878 323.326 325.102 329.55 333.55 335.774">Atom 16 - Radius 1</tspan></text>
<g id="Layer-1" data-name="Span">
</g>
<text xml:space="preserve" transform="matrix(.7177914 0 0 .7177914 0 0)" font-size="8" font-family="ArialMT"><tspan y="203" x="340.21876"> </tspan></text>
<path transform="matrix(.7177914,0,0,.7177914,.3588957,.3588957)" d="M 376 31 L 436.62 31 L 436.62 211 L 376 211 Z " fill="#9ac7bf"/>
<text xml:space="preserve" transform="matrix(.7177914 0 0 .7177914 0 0)" font-size="8" font-family="ArialMT"><tspan y="49" x="384.4375 385.9655 390.4135 394.8615 399.3095 403.7575 408.2055 412.6535 417.1015 421.5495 425.9975">'267481234'</tspan></text>
<g id="Layer-1" data-name="Span">
</g>
<text xml:space="preserve" transform="matrix(.7177914 0 0 .7177914 0 0)" font-size="8" font-family="ArialMT"><tspan y="49" x="427.53126"> </tspan></text>
<text xml:space="preserve" transform="matrix(.7177914 0 0 .7177914 0 0)" font-size="8" font-family="ArialMT"><tspan y="63" x="384.4375 385.9655 390.4135 394.8615 399.3095 403.7575 408.2055 412.6535 417.1015 421.5495 425.9975">'367413234'</tspan></text>
<g id="Layer-1" data-name="Span">
</g>
<text xml:space="preserve" transform="matrix(.7177914 0 0 .7177914 0 0)" font-size="8" font-family="ArialMT"><tspan y="63" x="427.53126"> </tspan></text>
<text xml:space="preserve" transform="matrix(.7177914 0 0 .7177914 0 0)" font-size="8" font-family="ArialMT"><tspan y="77" x="384.4375 385.9655 390.4135 394.8615 399.3095 403.7575 408.2055 412.6535 417.1015 421.5495 425.9975">'132134976'</tspan></text>
<g id="Layer-1" data-name="Span">
</g>
<text xml:space="preserve" transform="matrix(.7177914 0 0 .7177914 0 0)" font-size="8" font-family="ArialMT"><tspan y="77" x="427.53126"> </tspan></text>
<text xml:space="preserve" transform="matrix(.7177914 0 0 .7177914 0 0)" font-size="8" font-family="ArialMT"><tspan y="91" x="384.4375 385.9655 390.4135 394.8615 399.3095 403.7575 408.2055 412.6535 417.1015 421.5495 425.9975">'855277719'</tspan></text>
<g id="Layer-1" data-name="Span">
</g>
<text xml:space="preserve" transform="matrix(.7177914 0 0 .7177914 0 0)" font-size="8" font-family="ArialMT"><tspan y="91" x="427.53126"> </tspan></text>
<text xml:space="preserve" transform="matrix(.7177914 0 0 .7177914 0 0)" font-size="8" font-family="ArialMT"><tspan y="105" x="384.4375 385.9655 390.4135 394.8615 399.3095 403.7575 408.2055 412.6535 417.1015 421.5495 425.9975">'599978277'</tspan></text>
<g id="Layer-1" data-name="Span">
</g>
<text xml:space="preserve" transform="matrix(.7177914 0 0 .7177914 0 0)" font-size="8" font-family="ArialMT"><tspan y="105" x="427.53126"> </tspan></text>
<text xml:space="preserve" transform="matrix(.7177914 0 0 .7177914 0 0)" font-size="8" font-family="ArialMT"><tspan y="119" x="384.73439 386.2624 390.1172 394.5652 399.01319 403.46119 407.90919 412.35719 416.80519 421.25318 425.70118">'119876345'</tspan></text>
<g id="Layer-1" data-name="Span">
</g>
<text xml:space="preserve" transform="matrix(.7177914 0 0 .7177914 0 0)" font-size="8" font-family="ArialMT"><tspan y="119" x="427.23439"> </tspan></text>
<text xml:space="preserve" transform="matrix(.7177914 0 0 .7177914 0 0)" font-size="8" font-family="ArialMT"><tspan y="133" x="385.98439 388.20838 390.43238 392.65638 394.88038 397.10438 399.32838 401.55238 403.77638 406.00038 408.22438 410.44837 412.67237 414.89637 417.12037 419.34437 421.56837 423.79237">..................</tspan></text>
<g id="Layer-1" data-name="Span">
</g>
<text xml:space="preserve" transform="matrix(.7177914 0 0 .7177914 0 0)" font-size="8" font-family="ArialMT"><tspan y="133" x="425.98439"> </tspan></text>
<text xml:space="preserve" transform="matrix(.7177914 0 0 .7177914 0 0)" font-size="8" font-family="ArialMT"><tspan y="147" x="384.4375 385.9655 390.4135 394.8615 399.3095 403.7575 408.2055 412.6535 417.1015 421.5495 425.9975">'341234565'</tspan></text>
<g id="Layer-1" data-name="Span">
</g>
<text xml:space="preserve" transform="matrix(.7177914 0 0 .7177914 0 0)" font-size="8" font-family="ArialMT"><tspan y="147" x="427.53126"> </tspan></text>
<text xml:space="preserve" transform="matrix(.7177914 0 0 .7177914 0 0)" font-size="8" font-family="ArialMT"><tspan y="161" x="384.4375 385.9655 390.4135 394.8615 399.3095 403.7575 408.2055 412.6535 417.1015 421.5495 425.9975">'341233565'</tspan></text>
<g id="Layer-1" data-name="Span">
</g>
<text xml:space="preserve" transform="matrix(.7177914 0 0 .7177914 0 0)" font-size="8" font-family="ArialMT"><tspan y="161" x="427.53126"> </tspan></text>
<text xml:space="preserve" transform="matrix(.7177914 0 0 .7177914 0 0)" font-size="8" font-family="ArialMT"><tspan y="175" x="385.98439 388.20838 390.43238 392.65638 394.88038 397.10438 399.32838 401.55238 403.77638 406.00038 408.22438 410.44837 412.67237 414.89637 417.12037 419.34437 421.56837 423.79237">..................</tspan></text>
<g id="Layer-1" data-name="Span">
</g>
<text xml:space="preserve" transform="matrix(.7177914 0 0 .7177914 0 0)" font-size="8" font-family="ArialMT"><tspan y="175" x="425.98439"> </tspan></text>
<text xml:space="preserve" transform="matrix(.7177914 0 0 .7177914 0 0)" font-size="8" font-family="ArialMT"><tspan y="189" x="384.4375 385.9655 390.4135 394.8615 399.3095 403.7575 408.2055 412.6535 417.1015 421.5495 425.9975">'123441695'</tspan></text>
<g id="Layer-1" data-name="Span">
</g>
<text xml:space="preserve" transform="matrix(.7177914 0 0 .7177914 0 0)" font-size="8" font-family="ArialMT"><tspan y="189" x="427.53126"> </tspan></text>
<text xml:space="preserve" transform="matrix(.7177914 0 0 .7177914 0 0)" font-size="8" font-family="ArialMT"><tspan y="203" x="384.4375 385.9655 390.4135 394.8615 399.3095 403.7575 408.2055 412.6535 417.1015 421.5495 425.9975">'124897651'</tspan></text>
<g id="Layer-1" data-name="Span">
</g>
<text xml:space="preserve" transform="matrix(.7177914 0 0 .7177914 0 0)" font-size="8" font-family="ArialMT"><tspan y="203" x="427.53126"> </tspan></text>
<text xml:space="preserve" transform="matrix(.7177914 0 0 .7177914 0 0)" font-size="8" font-family="ArialMT"><tspan y="26" x="364.51564 369.85163 374.29963 378.74763 380.97163 385.41963 389.8676 393.8676 398.3156 400.5396 404.9876 407.2116 409.4356 413.4356 417.8836 422.3316 426.3316 428.5556 431.2196 435.6676 439.6676 441.8916 446.3396 449.0036 453.4516 455.2276 457.4516 459.6756">Sentence of substructural ID</tspan></text>
<path transform="matrix(.7177914,0,0,.7177914,.3588957,.3588957)" d="M 261.38 138 L 264.38 138 L 264.38 139 L 261.38 139 L 261.38 138 Z M 267.38 138 L 270.38 138 L 270.38 139 L 267.38 139 L 267.38 138 Z M 273.38 138 L 276.38 138 L 276.38 139 L 273.38 139 L 273.38 138 Z M 279.38 138 L 282.38 138 L 282.38 139 L 279.38 139 L 279.38 138 Z M 285.38 138 L 288.38 138 L 288.38 139 L 285.38 139 L 285.38 138 Z M 291.38 138 L 294.38 138 L 294.38 139 L 291.38 139 L 291.38 138 Z M 297.38 138 L 300.38 138 L 300.38 139 L 297.38 139 L 297.38 138 Z M 303.38 138 L 306.38 138 L 306.38 139 L 303.38 139 L 303.38 138 Z M 309.38 138 L 312.38 138 L 312.38 139 L 309.38 139 L 309.38 138 Z M 315.38 138 L 318.38 138 L 318.38 139 L 315.38 139 L 315.38 138 Z M 321.38 138 L 324.38 138 L 324.38 139 L 321.38 139 L 321.38 138 Z M 327.38 138 L 330.38 138 L 330.38 139 L 327.38 139 L 327.38 138 Z M 333.38 138 L 336.38 138 L 336.38 139 L 333.38 139 L 333.38 138 Z M 339.38 138 L 342.38 138 L 342.38 139 L 339.38 139 L 339.38 138 Z M 345.38 138 L 348.38 138 L 348.38 139 L 345.38 139 L 345.38 138 Z M 351.38 138 L 354.38 138 L 354.38 139 L 351.38 139 L 351.38 138 Z M 355.88 140.5 L 355.88 143.5 L 354.88 143.5 L 354.88 140.5 L 355.88 140.5 Z M 355.88 146.5 L 355.88 149.5 L 354.88 149.5 L 354.88 146.5 L 355.88 146.5 Z M 353.88 151.5 L 350.88 151.5 L 350.88 150.5 L 353.88 150.5 L 353.88 151.5 Z M 347.88 151.5 L 344.88 151.5 L 344.88 150.5 L 347.88 150.5 L 347.88 151.5 Z M 341.88 151.5 L 338.88 151.5 L 338.88 150.5 L 341.88 150.5 L 341.88 151.5 Z M 335.88 151.5 L 332.88 151.5 L 332.88 150.5 L 335.88 150.5 L 335.88 151.5 Z M 329.88 151.5 L 326.88 151.5 L 326.88 150.5 L 329.88 150.5 L 329.88 151.5 Z M 323.88 151.5 L 320.88 151.5 L 320.88 150.5 L 323.88 150.5 L 323.88 151.5 Z M 317.88 151.5 L 314.88 151.5 L 314.88 150.5 L 317.88 150.5 L 317.88 151.5 Z M 311.88 151.5 L 308.88 151.5 L 308.88 150.5 L 311.88 150.5 L 311.88 151.5 Z M 305.88 151.5 L 302.88 151.5 L 302.88 150.5 L 305.88 150.5 L 305.88 151.5 Z M 299.88 151.5 L 296.88 151.5 L 296.88 150.5 L 299.88 150.5 L 299.88 151.5 Z M 293.88 151.5 L 290.88 151.5 L 290.88 150.5 L 293.88 150.5 L 293.88 151.5 Z M 287.88 151.5 L 284.88 151.5 L 284.88 150.5 L 287.88 150.5 L 287.88 151.5 Z M 281.88 151.5 L 278.88 151.5 L 278.88 150.5 L 281.88 150.5 L 281.88 151.5 Z M 275.88 151.5 L 272.88 151.5 L 272.88 150.5 L 275.88 150.5 L 275.88 151.5 Z M 269.88 151.5 L 266.88 151.5 L 266.88 150.5 L 269.88 150.5 L 269.88 151.5 Z M 263.88 151.5 L 260.88 151.5 L 260.88 150.5 L 263.88 150.5 L 263.88 151.5 Z M 257.88 151.5 L 254.88 151.5 L 254.88 150.5 L 255.88 150.5 L 255.88 151 L 255.38 151 L 255.38 150.5 L 257.88 150.5 L 257.88 151.5 Z M 254.88 147.5 L 254.88 144.5 L 255.88 144.5 L 255.88 147.5 L 254.88 147.5 Z M 254.88 141.5 L 254.88 138 L 258.38 138 L 258.38 139 L 255.38 139 L 255.38 138.5 L 255.88 138.5 L 255.88 141.5 L 254.88 141.5 Z " fill="#cc6600"/>
<path transform="matrix(.7177914,0,0,.7177914,.3588957,.3588957)" d="M 196.31233 90.60955 L 198.65502 92.483539 L 198.03035 93.264438 L 195.68767 91.39045 M 200.9977 94.35753 L 203.34038 96.231517 L 202.71572 97.01241 L 200.37303 95.13843 M 205.68306 98.10551 L 208.02576 99.97949 L 207.4011 100.76039 L 205.0584 98.886409 M 210.36844 101.853488 L 212.71112 103.72747 L 212.08646 104.50837 L 209.74378 102.634387 M 215.0538 105.60146 L 217.39649 107.47545 L 216.77182 108.25635 L 214.42914 106.38236 M 219.73917 109.349437 L 222.08185 111.22343 L 221.45719 112.004329 L 219.1145 110.13033 M 224.42453 113.09742 L 226.76721 114.971408 L 226.14255 115.752307 L 223.79987 113.87832 M 229.10991 116.84539 L 231.45259 118.71938 L 230.82793 119.50028 L 228.48525 117.62629 M 233.79528 120.593379 L 236.13796 122.46736 L 235.51329 123.24826 L 233.17061 121.374279 M 238.48064 124.34135 L 240.82332 126.21534 L 240.19866 126.99624 L 237.85597 125.122249 M 243.166 128.08933 L 245.50868 129.96332 L 244.88402 130.7442 L 242.54134 128.87021 M 247.85137 131.83731 L 250.19405 133.7113 L 249.56938 134.49219 L 247.2267 132.6182 M 252.53673 135.5853 L 254.87943 137.45928 L 254.25476 138.24016 L 251.91207 136.36618 " fill="#cc6600"/>
<path transform="matrix(.7177914,0,0,.7177914,.3588957,.3588957)" d="M 196.22547 120.55372 L 198.90314 121.90653 L 198.45221 122.799098 L 195.77454 121.44628 M 201.5808 123.259349 L 204.25847 124.61215 L 203.80754 125.504718 L 201.12987 124.15191 M 206.93613 125.964969 L 209.6138 127.31778 L 209.16287 128.21035 L 206.4852 126.85753 M 212.29146 128.6706 L 214.96913 130.0234 L 214.5182 130.91596 L 211.84053 129.56314 M 217.64679 131.37622 L 220.32447 132.72904 L 219.87354 133.62158 L 217.19586 132.26877 M 223.00214 134.08185 L 225.6798 135.43466 L 225.22887 136.32721 L 222.55121 134.9744 M 228.35747 136.78748 L 231.03513 138.14029 L 230.5842 139.03284 L 227.90654 137.68003 M 233.7128 139.4931 L 236.39048 140.84592 L 235.93955 141.73847 L 233.26187 140.38565 M 239.06813 142.19872 L 241.74579 143.55153 L 241.29486 144.44408 L 238.6172 143.09127 M 244.42346 144.90435 L 247.10114 146.25716 L 246.6502 147.1497 L 243.97254 145.79689 M 249.7788 147.60997 L 252.45647 148.96279 L 252.00554 149.85533 L 249.32787 148.50252 M 255.13413 150.3156 L 255.60547 150.55373 L 255.15454 151.44628 L 254.6832 151.20815 " fill="#cc6600"/>
<path transform="matrix(.7177914,0,0,.7177914,.3588957,.3588957)" d="M 261.38 153 L 264.38 153 L 264.38 154 L 261.38 154 L 261.38 153 Z M 267.38 153 L 270.38 153 L 270.38 154 L 267.38 154 L 267.38 153 Z M 273.38 153 L 276.38 153 L 276.38 154 L 273.38 154 L 273.38 153 Z M 279.38 153 L 282.38 153 L 282.38 154 L 279.38 154 L 279.38 153 Z M 285.38 153 L 288.38 153 L 288.38 154 L 285.38 154 L 285.38 153 Z M 291.38 153 L 294.38 153 L 294.38 154 L 291.38 154 L 291.38 153 Z M 297.38 153 L 300.38 153 L 300.38 154 L 297.38 154 L 297.38 153 Z M 303.38 153 L 306.38 153 L 306.38 154 L 303.38 154 L 303.38 153 Z M 309.38 153 L 312.38 153 L 312.38 154 L 309.38 154 L 309.38 153 Z M 315.38 153 L 318.38 153 L 318.38 154 L 315.38 154 L 315.38 153 Z M 321.38 153 L 324.38 153 L 324.38 154 L 321.38 154 L 321.38 153 Z M 327.38 153 L 330.38 153 L 330.38 154 L 327.38 154 L 327.38 153 Z M 333.38 153 L 336.38 153 L 336.38 154 L 333.38 154 L 333.38 153 Z M 339.38 153 L 342.38 153 L 342.38 154 L 339.38 154 L 339.38 153 Z M 345.38 153 L 348.38 153 L 348.38 154 L 345.38 154 L 345.38 153 Z M 351.38 153 L 354.38 153 L 354.38 154 L 351.38 154 L 351.38 153 Z M 355.88 155.5 L 355.88 158.5 L 354.88 158.5 L 354.88 155.5 L 355.88 155.5 Z M 355.88 161.5 L 355.88 164.5 L 354.88 164.5 L 354.88 161.5 L 355.88 161.5 Z M 353.88 166.5 L 350.88 166.5 L 350.88 165.5 L 353.88 165.5 L 353.88 166.5 Z M 347.88 166.5 L 344.88 166.5 L 344.88 165.5 L 347.88 165.5 L 347.88 166.5 Z M 341.88 166.5 L 338.88 166.5 L 338.88 165.5 L 341.88 165.5 L 341.88 166.5 Z M 335.88 166.5 L 332.88 166.5 L 332.88 165.5 L 335.88 165.5 L 335.88 166.5 Z M 329.88 166.5 L 326.88 166.5 L 326.88 165.5 L 329.88 165.5 L 329.88 166.5 Z M 323.88 166.5 L 320.88 166.5 L 320.88 165.5 L 323.88 165.5 L 323.88 166.5 Z M 317.88 166.5 L 314.88 166.5 L 314.88 165.5 L 317.88 165.5 L 317.88 166.5 Z M 311.88 166.5 L 308.88 166.5 L 308.88 165.5 L 311.88 165.5 L 311.88 166.5 Z M 305.88 166.5 L 302.88 166.5 L 302.88 165.5 L 305.88 165.5 L 305.88 166.5 Z M 299.88 166.5 L 296.88 166.5 L 296.88 165.5 L 299.88 165.5 L 299.88 166.5 Z M 293.88 166.5 L 290.88 166.5 L 290.88 165.5 L 293.88 165.5 L 293.88 166.5 Z M 287.88 166.5 L 284.88 166.5 L 284.88 165.5 L 287.88 165.5 L 287.88 166.5 Z M 281.88 166.5 L 278.88 166.5 L 278.88 165.5 L 281.88 165.5 L 281.88 166.5 Z M 275.88 166.5 L 272.88 166.5 L 272.88 165.5 L 275.88 165.5 L 275.88 166.5 Z M 269.88 166.5 L 266.88 166.5 L 266.88 165.5 L 269.88 165.5 L 269.88 166.5 Z M 263.88 166.5 L 260.88 166.5 L 260.88 165.5 L 263.88 165.5 L 263.88 166.5 Z M 257.88 166.5 L 254.88 166.5 L 254.88 165.5 L 255.88 165.5 L 255.88 166 L 255.38 166 L 255.38 165.5 L 257.88 165.5 L 257.88 166.5 Z M 254.88 162.5 L 254.88 159.5 L 255.88 159.5 L 255.88 162.5 L 254.88 162.5 Z M 254.88 156.5 L 254.88 153 L 258.38 153 L 258.38 154 L 255.38 154 L 255.38 153.5 L 255.88 153.5 L 255.88 156.5 L 254.88 156.5 Z " fill="#3f6e9e"/>
<path transform="matrix(.7177914,0,0,.7177914,.3588957,.3588957)" d="M 255.51058 166.48265 L 252.61467 167.26605 L 252.35353 166.30075 L 255.24944 165.51735 M 249.71877 168.04946 L 246.82285 168.83286 L 246.5617 167.86756 L 249.45763 167.08415 M 243.92694 169.61627 L 241.03104 170.39968 L 240.7699 169.43437 L 243.6658 168.65097 M 238.13513 171.18308 L 235.23923 171.96648 L 234.97809 171.00118 L 237.874 170.21778 M 232.3433 172.74988 L 229.4474 173.53328 L 229.18627 172.56798 L 232.08217 171.78458 M 226.5515 174.31668 L 223.6556 175.10009 L 223.39446 174.13478 L 226.29036 173.35138 M 220.75969 175.8835 L 217.86379 176.6669 L 217.60265 175.7016 L 220.49855 174.9182 M 214.96787 177.4503 L 212.07196 178.2337 L 211.81082 177.2684 L 214.70673 176.485 M 209.17606 179.0171 L 206.28014 179.8005 L 206.019 178.8352 L 208.91492 178.0518 M 203.38423 180.58391 L 200.48833 181.36733 L 200.22719 180.40203 L 203.1231 179.6186 M 197.59243 182.15073 L 194.69652 182.93413 L 194.43538 181.96883 L 197.33129 181.18543 M 191.80062 183.71753 L 188.90471 184.50093 L 188.64357 183.53563 L 191.53948 182.75223 M 186.00879 185.28433 L 183.11289 186.06774 L 182.85175 185.10243 L 185.74765 184.31903 M 180.21698 186.85115 L 177.32106 187.63455 L 177.05992 186.66925 L 179.95584 185.88585 M 174.42516 188.41796 L 171.52925 189.20136 L 171.26811 188.23606 L 174.16402 187.45265 M 168.63335 189.98476 L 165.73744 190.76816 L 165.4763 189.80286 L 168.37221 189.01946 M 162.84154 191.55156 L 159.94564 192.33498 L 159.6845 191.36968 L 162.5804 190.58626 M 157.04972 193.11838 L 154.15381 193.90178 L 153.89267 192.93648 L 156.78858 192.15308 M 151.2579 194.68518 L 148.36199 195.46858 L 148.10085 194.50328 L 150.99677 193.71988 M 145.46608 196.25199 L 142.57018 197.03539 L 142.30904 196.07009 L 145.20494 195.28668 M 139.67427 197.8188 L 136.77837 198.6022 L 136.51723 197.6369 L 139.41313 196.8535 M 133.88246 199.3856 L 130.98656 200.169 L 130.72542 199.2037 L 133.62133 198.4203 M 128.09064 200.95241 L 126.13057 201.48265 L 125.86943 200.51735 L 127.8295 199.9871 " fill="#3f6e9e"/>
<text xml:space="preserve" transform="matrix(.7177914 0 0 .7177914 0 0)" font-size="8" font-family="ArialMT"><tspan y="131" x="131.75 137.086 139.31 143.758 150.422 152.646 157.094 161.54199 163.76599 166.43 168.65399 174.43 178.87799 183.32599 185.10199 189.54999 193.54999 195.77399">Atom 13 - Radius 0</tspan></text>
<path transform="matrix(.7177914,0,0,.7177914,.3588957,.3588957)" stroke-width="1" stroke-linecap="butt" stroke-miterlimit="10" stroke-linejoin="miter" fill="none" stroke="#cc6600" d="M 91 106 L 156 91 "/>
<text fill="#ea6b66" xml:space="preserve" transform="matrix(.7177914 0 0 .7177914 0 0)" font-size="8" font-family="Arial" font-weight="bold"><tspan y="125" x="71.546878 75.99487">13</tspan></text>
<text fill="#ea6b66" xml:space="preserve" transform="matrix(.7177914 0 0 .7177914 0 0)" font-size="8" font-family="Arial" font-weight="bold"><tspan y="50" x="116.765628">1</tspan></text>
<text fill="#ea6b66" xml:space="preserve" transform="matrix(.7177914 0 0 .7177914 0 0)" font-size="8" font-family="Arial" font-weight="bold"><tspan y="68" x="148.76563">2</tspan></text>
<text fill="#ea6b66" xml:space="preserve" transform="matrix(.7177914 0 0 .7177914 0 0)" font-size="8" font-family="Arial" font-weight="bold"><tspan y="89" x="151.76563">3</tspan></text>
<text fill="#ea6b66" xml:space="preserve" transform="matrix(.7177914 0 0 .7177914 0 0)" font-size="8" font-family="Arial" font-weight="bold"><tspan y="116" x="127.765628">4</tspan></text>
<text fill="#ea6b66" xml:space="preserve" transform="matrix(.7177914 0 0 .7177914 0 0)" font-size="8" font-family="Arial" font-weight="bold"><tspan y="78" x="92.265628">6</tspan></text>
<text fill="#ea6b66" xml:space="preserve" transform="matrix(.7177914 0 0 .7177914 0 0)" font-size="8" font-family="Arial" font-weight="bold"><tspan y="61" x="72.265628">7</tspan></text>
<text fill="#ea6b66" xml:space="preserve" transform="matrix(.7177914 0 0 .7177914 0 0)" font-size="8" font-family="Arial" font-weight="bold"><tspan y="46" x="6.546875 10.994875">10</tspan></text>
<text fill="#ea6b66" xml:space="preserve" transform="matrix(.7177914 0 0 .7177914 0 0)" font-size="8" font-family="Arial" font-weight="bold"><tspan y="36" x="67.046878 71.49487">12</tspan></text>
<text fill="#ea6b66" xml:space="preserve" transform="matrix(.7177914 0 0 .7177914 0 0)" font-size="8" font-family="Arial" font-weight="bold"><tspan y="21" x="35.765626 39.773439">11</tspan></text>
<text fill="#ea6b66" xml:space="preserve" transform="matrix(.7177914 0 0 .7177914 0 0)" font-size="8" font-family="Arial" font-weight="bold"><tspan y="76" x="16.265625">9</tspan></text>
<text fill="#ea6b66" xml:space="preserve" transform="matrix(.7177914 0 0 .7177914 0 0)" font-size="8" font-family="Arial" font-weight="bold"><tspan y="87" x="48.265626">8</tspan></text>
<text fill="#ea6b66" xml:space="preserve" transform="matrix(.7177914 0 0 .7177914 0 0)" font-size="8" font-family="Arial" font-weight="bold"><tspan y="41" x="172.04688 176.49488">14</tspan></text>
<text fill="#ea6b66" xml:space="preserve" transform="matrix(.7177914 0 0 .7177914 0 0)" font-size="8" font-family="Arial" font-weight="bold"><tspan y="16" x="166.54688 170.99488">15</tspan></text>
<text fill="#ea6b66" xml:space="preserve" transform="matrix(.7177914 0 0 .7177914 0 0)" font-size="8" font-family="Arial" font-weight="bold"><tspan y="65" x="192.04688 196.49488">16</tspan></text>
<text fill="#ea6b66" xml:space="preserve" transform="matrix(.7177914 0 0 .7177914 0 0)" font-size="8" font-family="Arial" font-weight="bold"><tspan y="101" x="96.28125">5</tspan></text>
</g>
</g>
</svg>
